/* XPM */
static char * apt_nonext_xpm[] = {
"30 20 4 1",
" 	c white",
".	c black",
"X	c #c0c0c0",
"o	c #b0b0b0",
"                             .",
" XXXXXXXXXXXXXXXXXXXXXXXXXXXX.",
" XXXXXXXXXXXXXXXXXXXXXXXXXXXX.",
" XXXXXXX..XXXXXXXXXXXXXXXXXXX.",
" XXXXXXX.o..XXXXXXXXXXXXXXXXX.",
" XXXXXXX.ooo..XXXXXXXXXXXXXXX.",
" XXXXXXX.ooooo..XXXXXXXXXXXXX.",
" XXXXXXX.ooooooo..XXXXXXXXXXX.",
" XXXXXXX.ooooooooo..XXXXXXXXX.",
" XXXXXXX.ooooooooooo..XXXXXXX.",
" XXXXXXX.ooooooooooo  XXXXXXX.",
" XXXXXXX.ooooooooo  XXXXXXXXX.",
" XXXXXXX.ooooooo  XXXXXXXXXXX.",
" XXXXXXX.ooooo  XXXXXXXXXXXXX.",
" XXXXXXX.ooo  XXXXXXXXXXXXXXX.",
" XXXXXXX.o  XXXXXXXXXXXXXXXXX.",
" XXXXXXX  XXXXXXXXXXXXXXXXXXX.",
" XXXXXXXXXXXXXXXXXXXXXXXXXXXX.",
" XXXXXXXXXXXXXXXXXXXXXXXXXXXX.",
" ............................."};
