/* XPM */
static char * apt_up_xpm[] = {
"30 20 4 1",
" 	c white",
".	c black",
"X	c #c0c0c0",
"o	c #666699",
"                             .",
" XXXXXXXXXXXXXXXXXXXXXXXXXXXX.",
" XXXXXXXXXXXXX. XXXXXXXXXXXXX.",
" XXXXXXXXXXXXX. XXXXXXXXXXXXX.",
" XXXXXXXXXXXX.oo XXXXXXXXXXXX.",
" XXXXXXXXXXXX.oo XXXXXXXXXXXX.",
" XXXXXXXXXXX.oooo XXXXXXXXXXX.",
" XXXXXXXXXXX.oooo XXXXXXXXXXX.",
" XXXXXXXXXX.oooooo XXXXXXXXXX.",
" XXXXXXXXXX.oooooo XXXXXXXXXX.",
" XXXXXXXXX.oooooooo XXXXXXXXX.",
" XXXXXXXXX.oooooooo XXXXXXXXX.",
" XXXXXXXX.oooooooooo XXXXXXXX.",
" XXXXXXXX.oooooooooo XXXXXXXX.",
" XXXXXXX.oooooooooooo XXXXXXX.",
" XXXXXXX.oooooooooooo XXXXXXX.",
" XXXXXXX              XXXXXXX.",
" XXXXXXXXXXXXXXXXXXXXXXXXXXXX.",
" XXXXXXXXXXXXXXXXXXXXXXXXXXXX.",
" ............................."};
