/* XPM */
static char * apt_nolast_xpm[] = {
"30 20 4 1",
" 	c white",
".	c black",
"X	c #c0c0c0",
"o	c #b0b0b0",
"                             .",
" XXXXXXXXXXXXXXXXXXXXXXXXXXXX.",
" XXXXXXXXXXXXXXXXXXXXXXXXXXXX.",
" XXXXXX..XXXXXXXXXXXX.. XXXXX.",
" XXXXXX.o..XXXXXXXXXX.o XXXXX.",
" XXXXXX.ooo..XXXXXXXX.o XXXXX.",
" XXXXXX.ooooo..XXXXXX.o XXXXX.",
" XXXXXX.ooooooo..XXXX.o XXXXX.",
" XXXXXX.ooooooooo..XX.o XXXXX.",
" XXXXXX.ooooooooooo...o XXXXX.",
" XXXXXX.ooooooooooo  .o XXXXX.",
" XXXXXX.ooooooooo  XX.o XXXXX.",
" XXXXXX.ooooooo  XXXX.o XXXXX.",
" XXXXXX.ooooo  XXXXXX.o XXXXX.",
" XXXXXX.ooo  XXXXXXXX.o XXXXX.",
" XXXXXX.o  XXXXXXXXXX.o XXXXX.",
" XXXXXX  XXXXXXXXXXXX   XXXXX.",
" XXXXXXXXXXXXXXXXXXXXXXXXXXXX.",
" XXXXXXXXXXXXXXXXXXXXXXXXXXXX.",
" ............................."};
