/* XPM */
static char * apt_noprev_xpm[] = {
"30 20 4 1",
" 	c white",
".	c black",
"X	c #c0c0c0",
"o	c #b0b0b0",
"                             .",
" XXXXXXXXXXXXXXXXXXXXXXXXXXXX.",
" XXXXXXXXXXXXXXXXXXXXXXXXXXXX.",
" XXXXXXXXXXXXXXXXXX.. XXXXXXX.",
" XXXXXXXXXXXXXXXX..oo XXXXXXX.",
" XXXXXXXXXXXXXX..oooo XXXXXXX.",
" XXXXXXXXXXXX..oooooo XXXXXXX.",
" XXXXXXXXXX..oooooooo XXXXXXX.",
" XXXXXXXX..oooooooooo XXXXXXX.",
" XXXXXX..oooooooooooo XXXXXXX.",
" XXXXXX  oooooooooooo XXXXXXX.",
" XXXXXXXX  oooooooooo XXXXXXX.",
" XXXXXXXXXX  oooooooo XXXXXXX.",
" XXXXXXXXXXXX  oooooo XXXXXXX.",
" XXXXXXXXXXXXXX  oooo XXXXXXX.",
" XXXXXXXXXXXXXXXX  oo XXXXXXX.",
" XXXXXXXXXXXXXXXXXX   XXXXXXX.",
" XXXXXXXXXXXXXXXXXXXXXXXXXXXX.",
" XXXXXXXXXXXXXXXXXXXXXXXXXXXX.",
" ............................."};
