/* XPM */
static char * apt_first_xpm[] = {
"30 20 4 1",
" 	c white",
".	c black",
"X	c #c0c0c0",
"o	c #666699",
"                             .",
" XXXXXXXXXXXXXXXXXXXXXXXXXXXX.",
" XXXXXXXXXXXXXXXXXXXXXXXXXXXX.",
" XXXXXX.. XXXXXXXXXXX.. XXXXX.",
" XXXXXX.o XXXXXXXXX..oo XXXXX.",
" XXXXXX.o XXXXXXX..oooo XXXXX.",
" XXXXXX.o XXXXX..oooooo XXXXX.",
" XXXXXX.o XXX..oooooooo XXXXX.",
" XXXXXX.o X..oooooooooo XXXXX.",
" XXXXXX.o..oooooooooooo XXXXX.",
" XXXXXX.o  oooooooooooo XXXXX.",
" XXXXXX.o X  oooooooooo XXXXX.",
" XXXXXX.o XXX  oooooooo XXXXX.",
" XXXXXX.o XXXXX  oooooo XXXXX.",
" XXXXXX.o XXXXXXX  oooo XXXXX.",
" XXXXXX.o XXXXXXXXX  oo XXXXX.",
" XXXXXX   XXXXXXXXXXX   XXXXX.",
" XXXXXXXXXXXXXXXXXXXXXXXXXXXX.",
" XXXXXXXXXXXXXXXXXXXXXXXXXXXX.",
" ............................."};
