/* XPM */
static char * apt_home_xpm[] = {
"30 20 4 1",
" 	c white",
".	c black",
"X	c #c0c0c0",
"o	c #666699",
"                             .",
" XXXXXXXXXXXXXXXXXXXXXXXXXXXX.",
" XXXXXXXXXXXXX. XXXXXXXXXXXXX.",
" XXXXXXXXXXXX.oo X.. XXXXXXXX.",
" XXXXXXXXXXX.oooo .o XXXXXXXX.",
" XXXXXXXXXX.oooooooo XXXXXXXX.",
" XXXXXXXXX.ooooooooo XXXXXXXX.",
" XXXXXXXX.oooooooooo XXXXXXXX.",
" XXXXXXX.oooooooooooo XXXXXXX.",
" XXXXXX.oooooooooooooo XXXXXX.",
" XXXXXX  .oooooooooo   XXXXXX.",
" XXXXXXXX.oooooooooo XXXXXXXX.",
" XXXXXXXX.ooo   .ooo XXXXXXXX.",
" XXXXXXXX.ooo XX.ooo XXXXXXXX.",
" XXXXXXXX.ooo XX.ooo XXXXXXXX.",
" XXXXXXXX.ooo XX.ooo XXXXXXXX.",
" XXXXXXXX.ooo XX.ooo XXXXXXXX.",
" XXXXXXXX     XX     XXXXXXXX.",
" XXXXXXXXXXXXXXXXXXXXXXXXXXXX.",
" ............................."};
